<svg width="27" height="27" viewBox="0 0 27 27" fill="none" xmlns="http://www.w3.org/2000/svg">
<g id="Icon Presentation">
<g id="Icon Presentation_2">
<g id="Group">
<path id="Vector" d="M25.5928 2.31394H1.40697C0.911159 2.31394 0.5 1.90278 0.5 1.40697C0.5 0.911159 0.911159 0.5 1.40697 0.5H25.5928C26.0886 0.5 26.4998 0.911159 26.4998 1.40697C26.4998 1.90278 26.0886 2.31394 25.5928 2.31394Z" fill="white"/>
<path id="Vector_2" d="M19.1477 26.004C18.9905 26.3184 18.664 26.4998 18.3374 26.4998C18.2044 26.4998 18.0593 26.4635 17.9384 26.4031L13.5003 24.1901L9.06213 26.4031C8.9412 26.4635 8.79608 26.4998 8.66306 26.4998C8.33655 26.4998 8.01004 26.3184 7.85284 26.004C7.62307 25.5445 7.80446 25.0003 8.26399 24.7826L12.5933 22.618V19.5464H14.4072V22.618L18.7365 24.7826C19.196 25.0003 19.3774 25.5445 19.1477 26.004Z" fill="white"/>
<path id="Vector_3" d="M2.61621 1.40698V16.0394C2.61621 18.3371 3.8255 19.5464 6.12316 19.5464H20.8765C23.1742 19.5464 24.3835 18.3371 24.3835 16.0394V1.40698H2.61621ZM19.5221 9.36412L15.7128 12.5446C15.3622 12.8348 14.9147 12.9557 14.4915 12.8832C14.0561 12.8106 13.6812 12.5446 13.4515 12.1576L12.1817 10.0413L8.63849 12.992C8.46918 13.1371 8.26361 13.1976 8.05803 13.1976C7.80407 13.1976 7.53803 13.0887 7.35664 12.8711C7.03013 12.4841 7.09059 11.9157 7.47757 11.5892L11.2868 8.40878C11.6375 8.11855 12.085 7.99762 12.5082 8.07018C12.9436 8.14274 13.3184 8.40878 13.5482 8.79576L14.818 10.912L18.3612 7.96135C18.7482 7.63484 19.3165 7.6953 19.643 8.08228C19.9575 8.46925 19.9091 9.03762 19.5221 9.36412Z" fill="white"/>
</g>
</g>
</g>
</svg>
