<svg width="55" height="54" viewBox="0 0 55 54" fill="none" xmlns="http://www.w3.org/2000/svg">
<rect width="55" height="54" rx="27" fill="url(#paint0_linear_21_1797)"/>
<path d="M32.7463 15H22.2661C17.7139 15 15 17.604 15 21.972V32.016C15 36.396 17.7139 39 22.2661 39H32.7338C37.2861 39 40 36.396 40 32.028V21.972C40.0125 17.604 37.2986 15 32.7463 15ZM26.1931 33.612C25.8304 33.96 25.1426 34.296 24.6423 34.368L21.5658 34.788C21.4532 34.8 21.3407 34.812 21.2281 34.812C20.7153 34.812 20.2401 34.644 19.9024 34.32C19.4897 33.924 19.3147 33.348 19.4147 32.712L19.8524 29.76C19.9275 29.268 20.2651 28.62 20.6403 28.272L26.2181 22.92C26.3181 23.172 26.4182 23.424 26.5558 23.712C26.6808 23.964 26.8184 24.228 26.9685 24.468C27.0935 24.672 27.2311 24.864 27.3437 25.008C27.4812 25.212 27.6438 25.404 27.7438 25.512C27.8064 25.596 27.8564 25.656 27.8814 25.68C28.1941 26.04 28.5568 26.376 28.8694 26.628C28.957 26.712 29.007 26.76 29.032 26.772C29.2196 26.916 29.4072 27.06 29.5698 27.168C29.7699 27.312 29.97 27.444 30.1826 27.552C30.4327 27.696 30.7078 27.828 30.983 27.96C31.2706 28.08 31.5332 28.188 31.7959 28.272L26.1931 33.612ZM34.2221 25.908L33.0715 27.024C32.9965 27.096 32.8964 27.132 32.7964 27.132C32.7589 27.132 32.7088 27.132 32.6838 27.12C30.145 26.424 28.119 24.48 27.3937 22.044C27.3562 21.912 27.3937 21.768 27.4937 21.684L28.6568 20.568C30.5578 18.744 32.3712 18.78 34.2346 20.568C35.1851 21.48 35.6478 22.356 35.6478 23.268C35.6353 24.132 35.1726 24.996 34.2221 25.908Z" fill="white"/>
<defs>
<linearGradient id="paint0_linear_21_1797" x1="49.5455" y1="50.175" x2="8.87897" y2="2.9702" gradientUnits="userSpaceOnUse">
<stop stop-color="#007CBD"/>
<stop offset="1" stop-color="#3EB7DD"/>
</linearGradient>
</defs>
</svg>
