<svg width="55" height="54" viewBox="0 0 55 54" fill="none" xmlns="http://www.w3.org/2000/svg">
<rect width="55" height="54" rx="27" fill="url(#paint0_linear_21_1803)"/>
<path d="M27.5 12.0001C19.235 12.0001 12.5 18.7351 12.5 27.0001C12.5 35.2651 19.235 42 27.5 42C35.7649 42 42.4999 35.2651 42.4999 27.0001C42.4999 18.7351 35.7649 12.0001 27.5 12.0001ZM34.6699 23.5501L26.165 32.0551C25.955 32.2651 25.67 32.3851 25.37 32.3851C25.07 32.3851 24.785 32.2651 24.575 32.0551L20.33 27.8101C19.895 27.3751 19.895 26.6551 20.33 26.2201C20.765 25.7851 21.485 25.7851 21.92 26.2201L25.37 29.6701L33.0799 21.9601C33.5149 21.5251 34.2349 21.5251 34.6699 21.9601C35.1049 22.3951 35.1049 23.1001 34.6699 23.5501Z" fill="white"/>
<defs>
<linearGradient id="paint0_linear_21_1803" x1="49.5455" y1="50.175" x2="8.87897" y2="2.9702" gradientUnits="userSpaceOnUse">
<stop stop-color="#007CBD"/>
<stop offset="1" stop-color="#3EB7DD"/>
</linearGradient>
</defs>
</svg>
